<?xml version="1.0" standalone="no"?>
<!DOCTYPE svg PUBLIC "-//W3C//DTD SVG 20010904//EN"
 "http://www.w3.org/TR/2001/REC-SVG-20010904/DTD/svg10.dtd">
<svg version="1.0" xmlns="http://www.w3.org/2000/svg"
 width="225.000000pt" height="225.000000pt" viewBox="0 0 225.000000 225.000000"
 preserveAspectRatio="xMidYMid meet">

<g transform="translate(0.000000,225.000000) scale(0.100000,-0.100000)"
fill="#000000" stroke="none">
<path d="M940 2121 c-411 -90 -699 -430 -717 -846 -9 -196 27 -339 126 -510
59 -102 199 -245 299 -304 70 -42 72 -44 55 -63 -11 -13 -19 -41 -21 -84 -4
-63 -4 -64 35 -103 132 -132 691 -133 818 -1 37 39 46 125 17 173 l-20 35 75
48 c190 120 331 309 395 529 20 69 23 101 22 240 0 144 -3 169 -27 248 -96
314 -334 547 -642 628 -116 30 -303 35 -415 10z m394 -46 c310 -78 549 -313
631 -618 16 -59 16 -70 4 -78 -12 -7 -11 -9 2 -9 13 0 18 -13 21 -62 3 -35 3
-66 1 -70 -2 -5 -103 -8 -224 -8 l-219 0 0 44 c0 44 1 44 30 41 19 -3 28 0 24
6 -3 6 3 13 13 15 15 4 18 12 15 41 -5 43 -29 68 -61 67 -15 -1 -25 5 -28 17
-4 14 -14 18 -43 17 -20 -1 -37 -6 -37 -12 0 -6 -1 -62 -1 -123 -2 -106 -3
-113 -22 -113 -19 0 -20 7 -20 94 0 76 3 95 16 100 12 4 14 19 12 63 -2 37 -7
57 -14 56 -8 -2 -13 43 -16 150 -3 146 -5 154 -33 205 -121 220 -425 210 -528
-17 -18 -38 -22 -70 -25 -186 -3 -107 -7 -142 -18 -148 -20 -12 -19 -116 1
-123 12 -5 15 -26 15 -100 0 -87 -1 -94 -20 -94 -19 0 -20 7 -20 109 0 86 -3
113 -16 125 -21 22 -51 20 -66 -4 -7 -11 -21 -20 -32 -20 -29 0 -56 -29 -56
-60 0 -31 13 -45 53 -55 24 -6 27 -12 27 -51 l0 -44 -222 2 -222 3 3 60 c5
137 60 297 147 425 82 122 238 254 371 311 166 72 381 89 557 44z m-59 -83
c-3 -3 -11 0 -18 7 -9 10 -8 11 6 5 10 -3 15 -9 12 -12z m-325 -16 c0 -2 -8
-10 -17 -17 -16 -13 -17 -12 -4 4 13 16 21 21 21 13z m375 -16 c10 -11 16 -20
13 -20 -3 0 -13 9 -23 20 -10 11 -16 20 -13 20 3 0 13 -9 23 -20z m29 -38 c3
-5 -1 -9 -9 -9 -8 0 -12 4 -9 9 3 4 7 8 9 8 2 0 6 -4 9 -8z m20 -38 c3 -8 2
-12 -4 -9 -6 3 -10 10 -10 16 0 14 7 11 14 -7z m23 -146 c-3 -7 -5 -2 -5 12 0
14 2 19 5 13 2 -7 2 -19 0 -25z m0 -130 c-3 -7 -5 -2 -5 12 0 14 2 19 5 13 2
-7 2 -19 0 -25z m35 -122 l-4 -45 -271 -3 c-355 -4 -334 -7 -339 48 l-3 44
310 0 310 0 -3 -44z m-690 -218 c-3 -192 8 -318 28 -318 4 0 13 -13 19 -29 19
-44 103 -124 158 -150 44 -20 67 -51 39 -51 -20 0 -90 41 -109 63 -10 12 -15
15 -11 7 5 -10 0 -9 -14 4 -12 10 -19 23 -15 29 3 6 1 7 -5 3 -14 -9 -75 73
-67 91 2 8 1 12 -4 9 -10 -7 -27 31 -41 94 -13 60 -13 406 0 431 6 10 14 19
18 19 4 0 6 -91 4 -202z m786 -40 c-4 -205 -6 -228 -27 -282 -30 -75 -146
-196 -173 -180 -6 4 -8 3 -5 -3 8 -13 -20 -26 -35 -16 -6 3 -8 1 -5 -4 7 -11
-22 -28 -31 -18 -8 8 28 44 52 51 11 4 37 21 57 39 20 18 40 34 45 36 5 2 20
25 34 52 13 26 28 47 33 47 5 0 7 6 4 13 -2 6 0 23 6 37 5 14 11 116 12 227 2
111 6 206 10 212 22 37 26 -2 23 -211z m-839 157 c2 -45 -3 -51 -33 -39 -25
10 -21 63 7 74 12 5 22 9 23 9 0 1 1 -19 3 -44z m701 -154 c0 -228 -16 -296
-59 -257 -19 17 -21 17 -37 2 -17 -17 -13 -46 7 -46 8 0 8 4 -1 15 -10 12 -9
16 5 21 9 4 22 1 28 -5 19 -19 -30 -52 -68 -46 -16 3 -24 2 -17 -1 30 -14 5
-21 -89 -27 -132 -8 -188 4 -238 51 -21 21 -43 52 -50 71 -7 21 -11 108 -11
222 l0 189 265 0 265 0 0 -189z m218 151 c2 -17 -1 -32 -7 -32 -5 0 -16 -3
-25 -6 -12 -5 -16 0 -16 19 0 63 42 80 48 19z m-396 -579 c-51 -2 -132 -2
-180 0 -48 1 -6 3 93 3 99 0 138 -2 87 -3z m-3 -47 c15 -18 -1 -60 -31 -80
-25 -16 -74 -14 -108 4 -22 12 -36 51 -26 75 7 20 148 22 165 1z m-57 -199
c-1 -45 -4 -88 -7 -94 -6 -17 -44 -17 -51 0 -6 16 -12 159 -7 172 2 6 18 9 36
7 l32 -4 -3 -81z m-92 -64 c0 -5 -18 -16 -40 -25 -88 -36 -25 -78 118 -78 75
0 94 3 115 20 33 27 26 47 -24 61 -21 7 -39 16 -39 21 0 11 0 11 82 -8 127
-29 218 -86 218 -137 0 -38 -88 -92 -190 -118 -83 -21 -347 -18 -429 5 -106
29 -157 62 -175 110 -10 30 60 90 136 115 93 31 228 51 228 34z m-330 -213
c66 -47 200 -77 381 -87 133 -6 143 -10 116 -47 -11 -15 -30 -17 -127 -18
-232 0 -410 64 -410 148 0 29 4 30 40 4z"/>
<path d="M1715 1720 c3 -5 8 -10 11 -10 2 0 4 5 4 10 0 6 -5 10 -11 10 -5 0
-7 -4 -4 -10z"/>
<path d="M1680 1630 c0 -5 5 -10 10 -10 6 0 10 5 10 10 0 6 -4 10 -10 10 -5 0
-10 -4 -10 -10z"/>
<path d="M1715 1600 c-3 -5 -1 -10 4 -10 6 0 11 5 11 10 0 6 -2 10 -4 10 -3 0
-8 -4 -11 -10z"/>
<path d="M1775 1600 c-3 -5 -1 -10 4 -10 6 0 11 5 11 10 0 6 -2 10 -4 10 -3 0
-8 -4 -11 -10z"/>
<path d="M1745 1540 c-3 -5 -1 -10 4 -10 6 0 11 5 11 10 0 6 -2 10 -4 10 -3 0
-8 -4 -11 -10z"/>
<path d="M1870 1499 c0 -5 5 -7 10 -4 6 3 10 8 10 11 0 2 -4 4 -10 4 -5 0 -10
-5 -10 -11z"/>
<path d="M1560 1469 c0 -5 5 -7 10 -4 6 3 10 8 10 11 0 2 -4 4 -10 4 -5 0 -10
-5 -10 -11z"/>
<path d="M1620 1469 c0 -5 5 -7 10 -4 6 3 10 8 10 11 0 2 -4 4 -10 4 -5 0 -10
-5 -10 -11z"/>
<path d="M1650 1469 c0 -5 5 -7 10 -4 6 3 10 8 10 11 0 2 -4 4 -10 4 -5 0 -10
-5 -10 -11z"/>
<path d="M1810 1469 c0 -5 5 -7 10 -4 6 3 10 8 10 11 0 2 -4 4 -10 4 -5 0 -10
-5 -10 -11z"/>
<path d="M1840 1469 c0 -5 5 -7 10 -4 6 3 10 8 10 11 0 2 -4 4 -10 4 -5 0 -10
-5 -10 -11z"/>
<path d="M1930 1470 c0 -5 5 -10 10 -10 6 0 10 5 10 10 0 6 -4 10 -10 10 -5 0
-10 -4 -10 -10z"/>
<path d="M1650 1439 c0 -5 5 -7 10 -4 6 3 10 8 10 11 0 2 -4 4 -10 4 -5 0 -10
-5 -10 -11z"/>
<path d="M1680 1440 c0 -5 5 -10 10 -10 6 0 10 5 10 10 0 6 -4 10 -10 10 -5 0
-10 -4 -10 -10z"/>
<path d="M1715 1440 c3 -5 8 -10 11 -10 2 0 4 5 4 10 0 6 -5 10 -11 10 -5 0
-7 -4 -4 -10z"/>
<path d="M1745 1440 c3 -5 8 -10 11 -10 2 0 4 5 4 10 0 6 -5 10 -11 10 -5 0
-7 -4 -4 -10z"/>
<path d="M1840 1439 c0 -5 5 -7 10 -4 6 3 10 8 10 11 0 2 -4 4 -10 4 -5 0 -10
-5 -10 -11z"/>
<path d="M1870 1439 c0 -5 5 -7 10 -4 6 3 10 8 10 11 0 2 -4 4 -10 4 -5 0 -10
-5 -10 -11z"/>
<path d="M1900 1440 c0 -5 5 -10 10 -10 6 0 10 5 10 10 0 6 -4 10 -10 10 -5 0
-10 -4 -10 -10z"/>
<path d="M1935 1440 c3 -5 8 -10 11 -10 2 0 4 5 4 10 0 6 -5 10 -11 10 -5 0
-7 -4 -4 -10z"/>
<path d="M1650 1410 c0 -5 5 -10 10 -10 6 0 10 5 10 10 0 6 -4 10 -10 10 -5 0
-10 -4 -10 -10z"/>
<path d="M1680 1410 c0 -5 5 -10 10 -10 6 0 10 5 10 10 0 6 -4 10 -10 10 -5 0
-10 -4 -10 -10z"/>
<path d="M1715 1410 c-3 -5 -1 -10 4 -10 6 0 11 5 11 10 0 6 -2 10 -4 10 -3 0
-8 -4 -11 -10z"/>
<path d="M1870 1410 c0 -5 5 -10 10 -10 6 0 10 5 10 10 0 6 -4 10 -10 10 -5 0
-10 -4 -10 -10z"/>
<path d="M1900 1410 c0 -5 5 -10 10 -10 6 0 10 5 10 10 0 6 -4 10 -10 10 -5 0
-10 -4 -10 -10z"/>
<path d="M1930 1410 c0 -5 5 -10 10 -10 6 0 10 5 10 10 0 6 -4 10 -10 10 -5 0
-10 -4 -10 -10z"/>
<path d="M1650 1380 c0 -5 5 -10 11 -10 5 0 7 5 4 10 -3 6 -8 10 -11 10 -2 0
-4 -4 -4 -10z"/>
<path d="M1680 1380 c0 -5 5 -10 10 -10 6 0 10 5 10 10 0 6 -4 10 -10 10 -5 0
-10 -4 -10 -10z"/>
<path d="M1715 1380 c-3 -5 -1 -10 4 -10 6 0 11 5 11 10 0 6 -2 10 -4 10 -3 0
-8 -4 -11 -10z"/>
<path d="M1745 1380 c-3 -5 -1 -10 4 -10 6 0 11 5 11 10 0 6 -2 10 -4 10 -3 0
-8 -4 -11 -10z"/>
<path d="M1840 1380 c0 -5 5 -10 11 -10 5 0 7 5 4 10 -3 6 -8 10 -11 10 -2 0
-4 -4 -4 -10z"/>
<path d="M1870 1380 c0 -5 5 -10 11 -10 5 0 7 5 4 10 -3 6 -8 10 -11 10 -2 0
-4 -4 -4 -10z"/>
<path d="M1900 1380 c0 -5 5 -10 10 -10 6 0 10 5 10 10 0 6 -4 10 -10 10 -5 0
-10 -4 -10 -10z"/>
<path d="M1935 1380 c-3 -5 -1 -10 4 -10 6 0 11 5 11 10 0 6 -2 10 -4 10 -3 0
-8 -4 -11 -10z"/>
<path d="M1650 1350 c0 -5 5 -10 11 -10 5 0 7 5 4 10 -3 6 -8 10 -11 10 -2 0
-4 -4 -4 -10z"/>
<path d="M1685 1350 c-3 -5 -1 -10 4 -10 6 0 11 5 11 10 0 6 -2 10 -4 10 -3 0
-8 -4 -11 -10z"/>
<path d="M1745 1350 c-3 -5 -1 -10 4 -10 6 0 11 5 11 10 0 6 -2 10 -4 10 -3 0
-8 -4 -11 -10z"/>
<path d="M1840 1350 c0 -5 5 -10 11 -10 5 0 7 5 4 10 -3 6 -8 10 -11 10 -2 0
-4 -4 -4 -10z"/>
<path d="M1905 1350 c-3 -5 -1 -10 4 -10 6 0 11 5 11 10 0 6 -2 10 -4 10 -3 0
-8 -4 -11 -10z"/>
<path d="M1965 1350 c-3 -5 -1 -10 4 -10 6 0 11 5 11 10 0 6 -2 10 -4 10 -3 0
-8 -4 -11 -10z"/>
<path d="M1685 1310 c3 -5 8 -10 11 -10 2 0 4 5 4 10 0 6 -5 10 -11 10 -5 0
-7 -4 -4 -10z"/>
<path d="M1620 1279 c0 -5 5 -7 10 -4 6 3 10 8 10 11 0 2 -4 4 -10 4 -5 0 -10
-5 -10 -11z"/>
<path d="M1430 1249 c0 -5 5 -7 10 -4 6 3 10 8 10 11 0 2 -4 4 -10 4 -5 0 -10
-5 -10 -11z"/>
<path d="M1590 1249 c0 -5 5 -7 10 -4 6 3 10 8 10 11 0 2 -4 4 -10 4 -5 0 -10
-5 -10 -11z"/>
<path d="M1620 1249 c0 -5 5 -7 10 -4 6 3 10 8 10 11 0 2 -4 4 -10 4 -5 0 -10
-5 -10 -11z"/>
<path d="M1655 1250 c3 -5 8 -10 11 -10 2 0 4 5 4 10 0 6 -5 10 -11 10 -5 0
-7 -4 -4 -10z"/>
<path d="M1685 1250 c3 -5 8 -10 11 -10 2 0 4 5 4 10 0 6 -5 10 -11 10 -5 0
-7 -4 -4 -10z"/>
<path d="M1715 1250 c3 -5 8 -10 11 -10 2 0 4 5 4 10 0 6 -5 10 -11 10 -5 0
-7 -4 -4 -10z"/>
<path d="M1745 1250 c3 -5 8 -10 11 -10 2 0 4 5 4 10 0 6 -5 10 -11 10 -5 0
-7 -4 -4 -10z"/>
<path d="M1775 1250 c3 -5 8 -10 11 -10 2 0 4 5 4 10 0 6 -5 10 -11 10 -5 0
-7 -4 -4 -10z"/>
<path d="M1810 1249 c0 -5 5 -7 10 -4 6 3 10 8 10 11 0 2 -4 4 -10 4 -5 0 -10
-5 -10 -11z"/>
<path d="M1840 1249 c0 -5 5 -7 10 -4 6 3 10 8 10 11 0 2 -4 4 -10 4 -5 0 -10
-5 -10 -11z"/>
<path d="M1935 1250 c3 -5 8 -10 11 -10 2 0 4 5 4 10 0 6 -5 10 -11 10 -5 0
-7 -4 -4 -10z"/>
<path d="M1965 1250 c3 -5 8 -10 11 -10 2 0 4 5 4 10 0 6 -5 10 -11 10 -5 0
-7 -4 -4 -10z"/>
<path d="M1100 1342 c0 -4 9 -8 20 -8 11 0 20 4 20 8 0 4 -9 8 -20 8 -11 0
-20 -4 -20 -8z"/>
<path d="M1160 1330 c0 -6 7 -10 16 -10 8 0 12 -5 9 -10 -4 -6 -12 -7 -18 -3
-9 5 -9 3 -1 -8 6 -8 14 -21 18 -29 3 -8 4 -5 2 8 -2 12 0 22 5 22 5 0 10 -3
10 -7 7 -46 5 -64 -11 -87 -10 -15 -20 -23 -24 -18 -3 5 1 15 9 22 8 7 15 20
14 29 0 10 -3 8 -10 -7 -5 -14 -13 -20 -20 -16 -7 4 -9 3 -5 -4 3 -6 -2 -13
-11 -15 -17 -4 -17 -5 0 -6 33 -2 17 -20 -18 -19 -32 1 -52 18 -22 18 9 0 9 2
-1 9 -8 4 -13 11 -13 15 1 3 -2 6 -6 5 -4 0 -10 8 -14 18 -6 15 -8 15 -8 2 -1
-9 6 -22 14 -29 8 -7 12 -17 9 -22 -4 -5 -14 3 -24 18 -16 23 -18 41 -11 87 0
4 5 7 10 7 5 0 7 -10 5 -22 -2 -13 -1 -16 2 -8 4 8 12 21 18 29 8 11 8 13 -1
8 -6 -4 -15 -2 -18 3 -10 17 -34 -20 -35 -53 0 -45 29 -86 66 -93 50 -9 88 3
107 35 21 36 21 63 2 100 -14 28 -45 49 -45 31z"/>
<path d="M1105 1096 c-20 -14 -17 -44 6 -59 24 -15 49 -1 49 27 0 32 -30 50
-55 32z m21 -11 c-1 -8 -8 -21 -16 -28 -7 -6 -11 -7 -8 -2 3 6 8 18 11 28 8
21 16 23 13 2z"/>
<path d="M1265 1020 c3 -5 8 -10 11 -10 2 0 4 5 4 10 0 6 -5 10 -11 10 -5 0
-7 -4 -4 -10z"/>
<path d="M1228 963 c7 -3 16 -2 19 1 4 3 -2 6 -13 5 -11 0 -14 -3 -6 -6z"/>
</g>
</svg>
